<?xml version="1.0" encoding="UTF-8"?>
<svg width="182px" height="108px" viewBox="0 0 182 108" version="1.1" xmlns="http://www.w3.org/2000/svg" xmlns:xlink="http://www.w3.org/1999/xlink">
    <!-- Generator: Sketch 45 (43475) - http://www.bohemiancoding.com/sketch -->
    <title>logo_CreativeMtl</title>
    <desc>Created with Sketch.</desc>
    <defs></defs>
    <g id="Page-1" stroke="none" stroke-width="1" fill="none" fill-rule="evenodd">
        <g id="logo_CreativeMtl" fill-rule="nonzero" fill="#000000">
            <path d="M28.1794685,49.4759907 L23.3466731,50.7582107 C20.5732829,40.3050693 18.9918033,33.8929967 18.5721657,31.3707924 C17.9891368,27.8665352 21.6266092,25.1283759 26.1207745,24.0723567 C30.8249149,22.9669984 35.2275855,24.0908112 36.890434,28.0374314 C38.4915187,31.8374607 37.1811901,35.2985919 33.8090157,37.8338298 C31.8347042,39.3181388 29.1549758,40.5030962 26.0613576,41.3755182 C26.6652002,43.7292119 27.3714987,46.4306843 28.1794685,49.4759907 Z M32.2827223,29.9788208 C31.7910433,28.8118652 29.8823495,28.3246576 27.2645021,28.9397879 C26.0082335,29.2349804 24.8354485,29.75495 24.0695987,30.3314544 C23.8272416,30.5138921 23.6524586,30.6823072 23.5500679,30.8130483 C23.7546412,31.9464036 24.1860992,33.8561836 24.8419224,36.529718 C30.5721337,34.9128403 33.3345059,32.4751338 32.2827223,29.9788208 Z" id="Path-2"></path>
            <path d="M166.136266,48.0582464 L171.928256,52.7586021 L168.777569,56.6410205 L163.163123,52.0847463 C161.348649,54.5487295 159.972268,56.4330054 159.037834,57.7321618 C161.927919,60.2288552 166.24009,63.1679608 171.951546,66.5149719 L169.423557,70.8288187 C162.255004,66.6279232 157.116361,62.9888467 153.968553,59.8524531 C153.120219,59.0071952 152.990443,57.6790677 153.659108,56.6855793 C154.788491,55.0075654 159.273377,48.8966792 167.19652,38.2367394 C168.005376,37.1484902 169.53429,36.9034023 170.642774,37.6842984 L181.479079,45.3181781 L178.59951,49.4057305 L169.756063,43.1757645 C168.444459,44.9421458 167.237707,46.5698537 166.136266,48.0582464 Z M111,26.2680439 L111,48.263417 L106,48.263417 L106,26.4654133 L78.9554629,27.5329663 C77.8176721,30.6457789 76.6197545,34.0573472 75.3633814,37.765291 L70.6278358,36.1607328 C76.5400382,18.7120021 81.1866212,7.66038094 84.7275574,2.77807479 L89.0304295,3.21835197 C89.3467939,3.9200891 91.0558587,7.9564549 91.3754405,8.69809876 C92.6332746,11.6171164 93.7818797,14.1439318 94.9720347,16.5519218 C95.9215093,18.4729537 96.8526823,20.2224954 97.7669261,21.7865108 L123.847711,20.7570009 L124.044927,25.7531099 L111,26.2680439 Z M80.8606179,22.4538685 L92.1595871,22.0078543 C91.6063658,20.9819696 91.0500946,19.9012977 90.4896411,18.7673558 C89.2553884,16.2701446 88.0730246,13.6690637 86.7836125,10.6767637 C86.7070686,10.4991307 86.5628019,10.1608477 86.3818366,9.73581428 C84.7802285,12.8304846 82.9357357,17.0756551 80.8606179,22.4538685 Z M53.7422788,34.5779252 L59.848417,32.6194506 L61.3754855,37.3805494 L55.2287678,39.3520395 C56.1922912,42.6865878 56.8341428,45.5263786 57.1539546,47.8828956 C62.9429322,46.4127333 68.4945208,44.9991545 73.8087149,43.6421606 L75.0457838,48.4867102 C68.8547308,50.0676124 62.3418056,51.7252323 55.5069993,53.4595722 C53.9270047,53.8604976 52.3921089,52.6664385 52.3921089,51.0363698 C52.3921089,46.4352 49.8220118,37.4386677 44.6729329,24.323978 C44.1525979,22.9986863 44.8425228,21.5070562 46.1893776,21.0453973 L61.9735953,15.6350706 L63.5948402,20.3649294 L50.2719905,24.9315777 C51.6200268,28.4481204 52.7768459,31.6618114 53.7422788,34.5779252 Z M29.4810571,38.4344527 L33.550421,35.5292373 C36.619064,39.8275158 39.4542536,42.3138716 41.9214349,43.0730345 L40.4509522,47.8519131 C36.7396063,46.7099151 33.1278262,43.5425183 29.4810571,38.4344527 Z M123.450739,35.6166547 C127.785647,48.1541101 131.148368,56.2065046 133.31133,59.447304 C133.461234,59.3396587 133.630742,59.2094063 133.816717,59.0560194 C135.273937,57.8541433 137.307577,55.6098744 139.857397,52.3600157 C145.096642,45.6823672 152.409726,34.9069948 161.773684,20.0596549 L166.002839,22.7269093 C156.555109,37.707077 149.15886,48.604988 143.791128,55.4463987 C141.03746,58.9560696 138.7932,61.4327743 136.99811,62.9133157 C134.43366,65.0284054 132.019865,65.7263595 130.173007,63.5818809 C127.476125,60.4503964 123.762982,51.8207606 118.725228,37.2505312 L123.450739,35.6166547 Z M137.357517,41.8237624 L132.412612,41.0835504 C134.045811,30.1731459 134.988797,22.7442693 135.238175,18.857118 L140.227917,19.1772311 C139.966708,23.248802 139.011041,30.7775799 137.357517,41.8237624 Z M140.49391,16.5518108 L135.50609,16.2030284 L135.812189,11.8256088 L140.800009,12.1743912 L140.49391,16.5518108 Z M41.431047,56.8654104 L43.4786363,61.4269209 C19.2868803,72.2862142 4.53121688,68.0796662 1.31148714,48.5264311 C-0.788648059,35.7724299 3.86243829,24.2184428 13.2350408,14.7031569 C20.2786386,7.55233114 29.8894949,1.99308112 36.1981249,0.709196708 L37.1952473,5.6087627 C31.9117986,6.68401001 23.1733889,11.7386069 16.7971813,18.2118824 C8.46482334,26.6710877 4.43033047,36.6933653 6.24504896,47.7140471 C8.82885111,63.4053302 19.8575701,66.5494 41.431047,56.8654104 Z" id="Combined-Shape"></path>
            <path d="M62.6361726,93.3286508 C62.5849019,92.8613252 62.5849019,92.8613252 62.2332524,92.1441513 C61.9324131,91.7990746 61.7687306,91.611323 61.5904392,91.4785998 L62.6361726,93.3286508 Z M89.4354813,65.8333333 C89.4824923,63.7852186 89.5370202,61.7337075 89.5982479,59.6869887 C89.6776089,57.034108 89.7626485,54.5877475 89.8477116,52.4050168 C89.8775057,51.6404934 89.9051842,50.9633375 89.9300402,50.3806927 C89.9449939,50.030166 89.9557114,49.7884561 89.9614859,49.6627083 L94.9562222,49.8920748 C94.9506929,50.0124828 94.9402155,50.2487787 94.9254966,50.5938024 C94.9008982,51.1704081 94.8734702,51.8414359 94.843919,52.5997236 C94.7594239,54.7678816 94.6749054,57.1992513 94.5960121,59.836497 C94.5362707,61.8335332 94.4829492,63.8350947 94.4368146,65.8333333 L106.395643,65.8333333 L106.395643,70.8333333 L94.3366269,70.8333333 C94.2480924,76.0723594 94.2139692,81.242684 94.2483151,86.2004975 C94.302701,94.0510577 94.5285319,100.910291 94.9516882,106.487128 L89.9660199,106.865428 C89.5329154,101.157483 89.3035497,94.1908855 89.2484351,86.2351349 C89.2139786,81.2613554 89.24779,76.0807689 89.335901,70.8333333 L76.3605938,70.8333333 L76.3605938,65.8333333 L89.4354813,65.8333333 Z M60.9848007,88.033458 C62.9051811,85.2875285 65.7860067,81.1403512 69.626409,75.5931598 L74.1723695,76.7983052 L76.6299451,104.888523 L71.6489716,105.324301 L69.7945648,84.1283348 C67.8519475,86.9277317 66.2812294,89.1845198 65.0822008,90.8989966 C64.1164095,92.2799704 63.3907335,93.3105826 62.903342,93.9933648 C62.6535868,94.3432447 62.4642388,94.6048521 62.3312314,94.7835124 C62.25111,94.8911344 62.1869991,94.9748022 62.1288934,95.0462297 C62.0691225,95.1199835 62.0691225,95.1199835 61.9286322,95.2703366 C61.8209823,95.3845734 61.8209823,95.3845734 61.4020899,95.6776431 C61.0065413,95.93072 61.0065413,95.93072 59.6563014,95.9685973 C59.1441388,95.7931431 58.9103289,95.7130457 58.6975822,95.5548807 C56.9533597,94.3187577 54.6124547,91.4300056 51.5395763,86.7715418 L51.5395763,106.233432 L46.5395763,106.233432 L46.5395763,78.0465665 L51.184515,76.7623399 C54.9036284,82.974071 57.8360941,87.3333996 59.8176195,89.6980097 C60.1559946,89.2170929 60.5451141,88.6621606 60.9848007,88.033458 Z M113.885595,76.7760865 C114.751465,86.4046913 114.845748,94.8852642 114.162164,102.225061 C114.975517,102.245564 115.980821,102.263701 117.176094,102.279359 C120.921484,102.328422 126.51308,102.352998 133.94691,102.352998 L133.94691,107.352998 C106.549919,107.352998 110.396847,107.403391 109.389844,106.049822 C109.005779,105.533579 108.835547,104.889131 108.914567,104.250563 C109.847612,96.7105224 109.847612,87.6982214 108.905691,77.2239135 L113.885595,76.7760865 Z" id="Combined-Shape"></path>
            <path d="M85.8884751,53.4580728 L86.9748344,55.1373058 L82.3534695,58.1270414 L81.2671102,56.4478084 L85.8884751,53.4580728 Z M86.5846911,47.2322785 L85.5111877,48.9197591 L80.0843561,45.4674395 L81.1578595,43.779959 L86.5846911,47.2322785 Z M92.7123559,45.207723 L90.739484,45.5360166 L89.0135641,35.1641468 L90.9864359,34.8358532 L92.7123559,45.207723 Z M97.8111408,47.2247738 L96.1888592,46.0550719 L100.255372,40.4151491 L101.877653,41.5848509 L97.8111408,47.2247738 Z M98.4718084,54.3788012 L99.5736895,52.7097123 L104.050941,55.6654555 L102.949059,57.3345445 L98.4718084,54.3788012 Z M96.8905605,38.3836165 L95.9793179,37.9717465 L98.909505,31.4888485 L99.8207476,31.9007185 L96.8905605,38.3836165 Z M86.2406942,40.1711987 L85.4351669,40.7637573 L81.5458042,35.4765374 L82.3513315,34.8839787 L86.2406942,40.1711987 Z M82.8143002,50.7175394 L83.0670122,51.685081 L75.5981382,53.6358747 L75.3454262,52.6683332 L82.8143002,50.7175394 Z M96.7833217,58.2414894 L97.5789209,57.6356662 L100.544842,61.530671 L99.7492428,62.1364943 L96.7833217,58.2414894 Z M87.3683976,58.9786612 L88.1761379,59.5681996 L85.9225457,62.6558985 L85.1148054,62.06636 L87.3683976,58.9786612 Z M99.6857919,50.1087967 L99.6857919,49.1087967 L103.458549,49.1087967 L103.458549,50.1087967 L99.6857919,50.1087967 Z" id="Combined-Shape"></path>
        </g>
    </g>
</svg>